<mxfile host="app.diagrams.net" agent="Mozilla/5.0 (Windows NT 10.0; Win64; x64) AppleWebKit/537.36 (KHTML, like Gecko) Chrome/137.0.0.0 Safari/537.36" version="27.1.4">
  <diagram name="Seite-1" id="Me2noKod51ME9DIsj3RZ">
    <mxGraphModel dx="2066" dy="1143" grid="1" gridSize="10" guides="1" tooltips="1" connect="1" arrows="1" fold="1" page="1" pageScale="1" pageWidth="827" pageHeight="1169" math="0" shadow="0">
      <root>
        <mxCell id="0" />
        <mxCell id="1" parent="0" />
        <mxCell id="gJKcdJ5zcgaOzrdVH2U9-57" value="" style="rounded=0;whiteSpace=wrap;html=1;dashed=1;dashPattern=1 2;" parent="1" vertex="1">
          <mxGeometry x="710" y="440" width="560" height="180" as="geometry" />
        </mxCell>
        <mxCell id="gJKcdJ5zcgaOzrdVH2U9-10" value="" style="rounded=0;whiteSpace=wrap;html=1;dashed=1;dashPattern=1 2;" parent="1" vertex="1">
          <mxGeometry x="70" y="950" width="1560" height="250" as="geometry" />
        </mxCell>
        <mxCell id="gJKcdJ5zcgaOzrdVH2U9-2" value="" style="rounded=0;whiteSpace=wrap;html=1;dashed=1;dashPattern=1 2;" parent="1" vertex="1">
          <mxGeometry x="70" y="650" width="920" height="270" as="geometry" />
        </mxCell>
        <mxCell id="f96OBmaPLv8beqYOAQJ8-7" style="edgeStyle=orthogonalEdgeStyle;rounded=0;orthogonalLoop=1;jettySize=auto;html=1;" parent="1" source="f96OBmaPLv8beqYOAQJ8-2" target="f96OBmaPLv8beqYOAQJ8-4" edge="1">
          <mxGeometry relative="1" as="geometry" />
        </mxCell>
        <mxCell id="f96OBmaPLv8beqYOAQJ8-2" value="&lt;b&gt;Doppelte Faltung&lt;/b&gt;" style="rounded=1;whiteSpace=wrap;html=1;dashed=1;dashPattern=1 1;" parent="1" vertex="1">
          <mxGeometry x="89.97000000000003" y="685" width="110" height="40" as="geometry" />
        </mxCell>
        <mxCell id="f96OBmaPLv8beqYOAQJ8-6" style="edgeStyle=orthogonalEdgeStyle;rounded=0;orthogonalLoop=1;jettySize=auto;html=1;" parent="1" source="f96OBmaPLv8beqYOAQJ8-4" target="f96OBmaPLv8beqYOAQJ8-5" edge="1">
          <mxGeometry relative="1" as="geometry">
            <Array as="points">
              <mxPoint x="300" y="705" />
              <mxPoint x="300" y="740" />
            </Array>
          </mxGeometry>
        </mxCell>
        <mxCell id="f96OBmaPLv8beqYOAQJ8-4" value="&lt;b&gt;MaxPool(2)&lt;/b&gt;" style="rounded=1;whiteSpace=wrap;html=1;strokeColor=#FF8000;" parent="1" vertex="1">
          <mxGeometry x="219.97" y="690" width="70.03" height="30" as="geometry" />
        </mxCell>
        <mxCell id="f96OBmaPLv8beqYOAQJ8-11" style="edgeStyle=orthogonalEdgeStyle;rounded=0;orthogonalLoop=1;jettySize=auto;html=1;entryX=0;entryY=0.5;entryDx=0;entryDy=0;" parent="1" source="f96OBmaPLv8beqYOAQJ8-5" target="f96OBmaPLv8beqYOAQJ8-8" edge="1">
          <mxGeometry relative="1" as="geometry" />
        </mxCell>
        <mxCell id="gJKcdJ5zcgaOzrdVH2U9-7" style="edgeStyle=orthogonalEdgeStyle;rounded=0;orthogonalLoop=1;jettySize=auto;html=1;exitX=1;exitY=0.25;exitDx=0;exitDy=0;entryX=1;entryY=0.207;entryDx=0;entryDy=0;endArrow=none;startFill=0;dashed=1;entryPerimeter=0;" parent="1" source="f96OBmaPLv8beqYOAQJ8-5" edge="1">
          <mxGeometry relative="1" as="geometry">
            <mxPoint x="989.97" y="691.4000000000001" as="targetPoint" />
            <Array as="points">
              <mxPoint x="440" y="730" />
              <mxPoint x="440" y="690" />
              <mxPoint x="990" y="690" />
            </Array>
          </mxGeometry>
        </mxCell>
        <mxCell id="f96OBmaPLv8beqYOAQJ8-5" value="&lt;b&gt;Doppelte Faltung&lt;/b&gt;" style="rounded=1;whiteSpace=wrap;html=1;dashed=1;dashPattern=1 1;" parent="1" vertex="1">
          <mxGeometry x="320" y="720" width="110" height="40" as="geometry" />
        </mxCell>
        <mxCell id="f96OBmaPLv8beqYOAQJ8-24" style="edgeStyle=orthogonalEdgeStyle;rounded=0;orthogonalLoop=1;jettySize=auto;html=1;entryX=0;entryY=0.5;entryDx=0;entryDy=0;" parent="1" source="f96OBmaPLv8beqYOAQJ8-8" target="f96OBmaPLv8beqYOAQJ8-9" edge="1">
          <mxGeometry relative="1" as="geometry">
            <Array as="points">
              <mxPoint x="530" y="740" />
              <mxPoint x="530" y="780" />
            </Array>
          </mxGeometry>
        </mxCell>
        <mxCell id="f96OBmaPLv8beqYOAQJ8-8" value="&lt;b&gt;MaxPool(2)&lt;/b&gt;" style="rounded=1;whiteSpace=wrap;html=1;strokeColor=#FF8000;" parent="1" vertex="1">
          <mxGeometry x="450" y="725" width="70.03" height="30" as="geometry" />
        </mxCell>
        <mxCell id="f96OBmaPLv8beqYOAQJ8-15" style="edgeStyle=orthogonalEdgeStyle;rounded=0;orthogonalLoop=1;jettySize=auto;html=1;entryX=0;entryY=0.5;entryDx=0;entryDy=0;" parent="1" source="f96OBmaPLv8beqYOAQJ8-9" target="f96OBmaPLv8beqYOAQJ8-13" edge="1">
          <mxGeometry relative="1" as="geometry" />
        </mxCell>
        <mxCell id="f96OBmaPLv8beqYOAQJ8-9" value="&lt;b&gt;Doppelte Faltung&lt;/b&gt;" style="rounded=1;whiteSpace=wrap;html=1;dashed=1;dashPattern=1 1;" parent="1" vertex="1">
          <mxGeometry x="550" y="760" width="110" height="40" as="geometry" />
        </mxCell>
        <mxCell id="f96OBmaPLv8beqYOAQJ8-16" style="edgeStyle=orthogonalEdgeStyle;rounded=0;orthogonalLoop=1;jettySize=auto;html=1;entryX=0;entryY=0.5;entryDx=0;entryDy=0;" parent="1" source="f96OBmaPLv8beqYOAQJ8-13" target="f96OBmaPLv8beqYOAQJ8-14" edge="1">
          <mxGeometry relative="1" as="geometry">
            <Array as="points">
              <mxPoint x="760" y="780" />
              <mxPoint x="760" y="820" />
            </Array>
          </mxGeometry>
        </mxCell>
        <mxCell id="f96OBmaPLv8beqYOAQJ8-13" value="&lt;b&gt;MaxPool(2)&lt;/b&gt;" style="rounded=1;whiteSpace=wrap;html=1;strokeColor=#FF8000;" parent="1" vertex="1">
          <mxGeometry x="680" y="765" width="70.03" height="30" as="geometry" />
        </mxCell>
        <mxCell id="f96OBmaPLv8beqYOAQJ8-19" style="edgeStyle=orthogonalEdgeStyle;rounded=0;orthogonalLoop=1;jettySize=auto;html=1;entryX=0;entryY=0.5;entryDx=0;entryDy=0;" parent="1" source="f96OBmaPLv8beqYOAQJ8-14" target="f96OBmaPLv8beqYOAQJ8-17" edge="1">
          <mxGeometry relative="1" as="geometry" />
        </mxCell>
        <mxCell id="f96OBmaPLv8beqYOAQJ8-14" value="&lt;b&gt;Doppelte Faltung&lt;/b&gt;" style="rounded=1;whiteSpace=wrap;html=1;dashed=1;dashPattern=1 1;" parent="1" vertex="1">
          <mxGeometry x="780" y="800" width="110" height="40" as="geometry" />
        </mxCell>
        <mxCell id="f96OBmaPLv8beqYOAQJ8-17" value="&lt;b&gt;MaxPool(2)&lt;/b&gt;" style="rounded=1;whiteSpace=wrap;html=1;strokeColor=#FF8000;" parent="1" vertex="1">
          <mxGeometry x="910" y="805" width="70.03" height="30" as="geometry" />
        </mxCell>
        <mxCell id="gJKcdJ5zcgaOzrdVH2U9-4" value="&lt;font style=&quot;font-size: 23px;&quot;&gt;Encoder&lt;/font&gt;" style="text;html=1;align=center;verticalAlign=middle;whiteSpace=wrap;rounded=0;" parent="1" vertex="1">
          <mxGeometry x="80" y="870" width="100" height="40" as="geometry" />
        </mxCell>
        <mxCell id="gJKcdJ5zcgaOzrdVH2U9-6" style="edgeStyle=orthogonalEdgeStyle;rounded=0;orthogonalLoop=1;jettySize=auto;html=1;exitX=1;exitY=0.25;exitDx=0;exitDy=0;entryX=0.999;entryY=0.101;entryDx=0;entryDy=0;entryPerimeter=0;endArrow=none;startFill=0;dashed=1;" parent="1" source="f96OBmaPLv8beqYOAQJ8-2" edge="1">
          <mxGeometry relative="1" as="geometry">
            <mxPoint x="988.95" y="670.2" as="targetPoint" />
            <Array as="points">
              <mxPoint x="209.97000000000003" y="695" />
              <mxPoint x="209.97000000000003" y="670" />
              <mxPoint x="987.97" y="670" />
            </Array>
          </mxGeometry>
        </mxCell>
        <mxCell id="gJKcdJ5zcgaOzrdVH2U9-8" style="edgeStyle=orthogonalEdgeStyle;rounded=0;orthogonalLoop=1;jettySize=auto;html=1;exitX=1;exitY=0.25;exitDx=0;exitDy=0;entryX=1;entryY=0.312;entryDx=0;entryDy=0;entryPerimeter=0;endArrow=none;startFill=0;dashed=1;" parent="1" source="f96OBmaPLv8beqYOAQJ8-9" edge="1">
          <mxGeometry relative="1" as="geometry">
            <mxPoint x="989.97" y="712.4000000000001" as="targetPoint" />
            <Array as="points">
              <mxPoint x="670" y="770" />
              <mxPoint x="670" y="712" />
            </Array>
          </mxGeometry>
        </mxCell>
        <mxCell id="gJKcdJ5zcgaOzrdVH2U9-9" style="edgeStyle=orthogonalEdgeStyle;rounded=0;orthogonalLoop=1;jettySize=auto;html=1;exitX=1;exitY=0.25;exitDx=0;exitDy=0;entryX=0.999;entryY=0.418;entryDx=0;entryDy=0;entryPerimeter=0;dashed=1;endArrow=none;startFill=0;" parent="1" source="f96OBmaPLv8beqYOAQJ8-14" edge="1">
          <mxGeometry relative="1" as="geometry">
            <mxPoint x="988.95" y="733.6000000000001" as="targetPoint" />
            <Array as="points">
              <mxPoint x="900" y="810" />
              <mxPoint x="900" y="734" />
            </Array>
          </mxGeometry>
        </mxCell>
        <mxCell id="gJKcdJ5zcgaOzrdVH2U9-16" style="edgeStyle=orthogonalEdgeStyle;rounded=0;orthogonalLoop=1;jettySize=auto;html=1;entryX=0;entryY=0.5;entryDx=0;entryDy=0;" parent="1" target="gJKcdJ5zcgaOzrdVH2U9-12" edge="1">
          <mxGeometry relative="1" as="geometry">
            <Array as="points">
              <mxPoint x="70" y="1101" />
            </Array>
            <mxPoint x="70" y="1101" as="sourcePoint" />
          </mxGeometry>
        </mxCell>
        <mxCell id="gJKcdJ5zcgaOzrdVH2U9-11" value="&lt;font style=&quot;font-size: 23px;&quot;&gt;Decoder&lt;/font&gt;" style="text;html=1;align=center;verticalAlign=middle;whiteSpace=wrap;rounded=0;" parent="1" vertex="1">
          <mxGeometry x="80" y="1150" width="100" height="40" as="geometry" />
        </mxCell>
        <mxCell id="gJKcdJ5zcgaOzrdVH2U9-18" style="edgeStyle=orthogonalEdgeStyle;rounded=0;orthogonalLoop=1;jettySize=auto;html=1;entryX=0;entryY=0.5;entryDx=0;entryDy=0;" parent="1" source="gJKcdJ5zcgaOzrdVH2U9-12" target="gJKcdJ5zcgaOzrdVH2U9-17" edge="1">
          <mxGeometry relative="1" as="geometry" />
        </mxCell>
        <mxCell id="gJKcdJ5zcgaOzrdVH2U9-12" value="&lt;b&gt;ConvTranspose2d&lt;/b&gt;" style="rounded=1;whiteSpace=wrap;html=1;strokeColor=#7F00FF;" parent="1" vertex="1">
          <mxGeometry x="84.98" y="1086" width="110" height="30" as="geometry" />
        </mxCell>
        <mxCell id="gJKcdJ5zcgaOzrdVH2U9-19" style="edgeStyle=orthogonalEdgeStyle;rounded=0;orthogonalLoop=1;jettySize=auto;html=1;exitX=0;exitY=0.25;exitDx=0;exitDy=0;endArrow=none;startFill=0;dashed=1;" parent="1" source="gJKcdJ5zcgaOzrdVH2U9-17" edge="1">
          <mxGeometry relative="1" as="geometry">
            <mxPoint x="70" y="1030" as="targetPoint" />
            <Array as="points">
              <mxPoint x="200" y="1094" />
              <mxPoint x="200" y="1030" />
            </Array>
          </mxGeometry>
        </mxCell>
        <mxCell id="gJKcdJ5zcgaOzrdVH2U9-21" style="edgeStyle=orthogonalEdgeStyle;rounded=0;orthogonalLoop=1;jettySize=auto;html=1;" parent="1" source="gJKcdJ5zcgaOzrdVH2U9-17" target="gJKcdJ5zcgaOzrdVH2U9-20" edge="1">
          <mxGeometry relative="1" as="geometry" />
        </mxCell>
        <mxCell id="gJKcdJ5zcgaOzrdVH2U9-17" value="&lt;b&gt;Concat&lt;/b&gt;" style="rounded=1;whiteSpace=wrap;html=1;" parent="1" vertex="1">
          <mxGeometry x="214.98" y="1086" width="60" height="30" as="geometry" />
        </mxCell>
        <mxCell id="gJKcdJ5zcgaOzrdVH2U9-23" style="edgeStyle=orthogonalEdgeStyle;rounded=0;orthogonalLoop=1;jettySize=auto;html=1;entryX=0;entryY=0.5;entryDx=0;entryDy=0;" parent="1" source="gJKcdJ5zcgaOzrdVH2U9-20" target="gJKcdJ5zcgaOzrdVH2U9-22" edge="1">
          <mxGeometry relative="1" as="geometry">
            <Array as="points">
              <mxPoint x="414.98" y="1101" />
              <mxPoint x="414.98" y="1066" />
            </Array>
          </mxGeometry>
        </mxCell>
        <mxCell id="gJKcdJ5zcgaOzrdVH2U9-20" value="&lt;b&gt;Doppelte Faltung&lt;/b&gt;" style="rounded=1;whiteSpace=wrap;html=1;dashed=1;dashPattern=1 1;" parent="1" vertex="1">
          <mxGeometry x="294.98" y="1081" width="110" height="40" as="geometry" />
        </mxCell>
        <mxCell id="gJKcdJ5zcgaOzrdVH2U9-25" style="edgeStyle=orthogonalEdgeStyle;rounded=0;orthogonalLoop=1;jettySize=auto;html=1;" parent="1" source="gJKcdJ5zcgaOzrdVH2U9-22" target="gJKcdJ5zcgaOzrdVH2U9-24" edge="1">
          <mxGeometry relative="1" as="geometry" />
        </mxCell>
        <mxCell id="gJKcdJ5zcgaOzrdVH2U9-22" value="&lt;b&gt;ConvTranspose2d&lt;/b&gt;" style="rounded=1;whiteSpace=wrap;html=1;strokeColor=#7F00FF;" parent="1" vertex="1">
          <mxGeometry x="434.98" y="1051" width="110" height="30" as="geometry" />
        </mxCell>
        <mxCell id="gJKcdJ5zcgaOzrdVH2U9-27" style="edgeStyle=orthogonalEdgeStyle;rounded=0;orthogonalLoop=1;jettySize=auto;html=1;" parent="1" source="gJKcdJ5zcgaOzrdVH2U9-24" target="gJKcdJ5zcgaOzrdVH2U9-26" edge="1">
          <mxGeometry relative="1" as="geometry" />
        </mxCell>
        <mxCell id="gJKcdJ5zcgaOzrdVH2U9-24" value="&lt;b&gt;Concat&lt;/b&gt;" style="rounded=1;whiteSpace=wrap;html=1;" parent="1" vertex="1">
          <mxGeometry x="564.98" y="1051" width="60" height="30" as="geometry" />
        </mxCell>
        <mxCell id="gJKcdJ5zcgaOzrdVH2U9-30" style="edgeStyle=orthogonalEdgeStyle;rounded=0;orthogonalLoop=1;jettySize=auto;html=1;entryX=0;entryY=0.5;entryDx=0;entryDy=0;" parent="1" source="gJKcdJ5zcgaOzrdVH2U9-26" target="gJKcdJ5zcgaOzrdVH2U9-29" edge="1">
          <mxGeometry relative="1" as="geometry">
            <Array as="points">
              <mxPoint x="764.98" y="1066" />
              <mxPoint x="764.98" y="1031" />
            </Array>
          </mxGeometry>
        </mxCell>
        <mxCell id="gJKcdJ5zcgaOzrdVH2U9-26" value="&lt;b&gt;Doppelte Faltung&lt;/b&gt;" style="rounded=1;whiteSpace=wrap;html=1;dashed=1;dashPattern=1 1;" parent="1" vertex="1">
          <mxGeometry x="644.98" y="1046" width="110" height="40" as="geometry" />
        </mxCell>
        <mxCell id="gJKcdJ5zcgaOzrdVH2U9-28" style="edgeStyle=orthogonalEdgeStyle;rounded=0;orthogonalLoop=1;jettySize=auto;html=1;exitX=0;exitY=0.25;exitDx=0;exitDy=0;endArrow=none;startFill=0;dashed=1;" parent="1" source="gJKcdJ5zcgaOzrdVH2U9-24" edge="1">
          <mxGeometry relative="1" as="geometry">
            <mxPoint x="70" y="1010" as="targetPoint" />
            <Array as="points">
              <mxPoint x="550" y="1059" />
              <mxPoint x="550" y="1010" />
            </Array>
          </mxGeometry>
        </mxCell>
        <mxCell id="gJKcdJ5zcgaOzrdVH2U9-32" style="edgeStyle=orthogonalEdgeStyle;rounded=0;orthogonalLoop=1;jettySize=auto;html=1;" parent="1" source="gJKcdJ5zcgaOzrdVH2U9-29" target="gJKcdJ5zcgaOzrdVH2U9-31" edge="1">
          <mxGeometry relative="1" as="geometry" />
        </mxCell>
        <mxCell id="gJKcdJ5zcgaOzrdVH2U9-29" value="&lt;b&gt;ConvTranspose2d&lt;/b&gt;" style="rounded=1;whiteSpace=wrap;html=1;strokeColor=#7F00FF;" parent="1" vertex="1">
          <mxGeometry x="784.98" y="1016" width="110" height="30" as="geometry" />
        </mxCell>
        <mxCell id="gJKcdJ5zcgaOzrdVH2U9-33" style="edgeStyle=orthogonalEdgeStyle;rounded=0;orthogonalLoop=1;jettySize=auto;html=1;exitX=0;exitY=0.25;exitDx=0;exitDy=0;endArrow=none;startFill=0;dashed=1;" parent="1" source="gJKcdJ5zcgaOzrdVH2U9-31" edge="1">
          <mxGeometry relative="1" as="geometry">
            <mxPoint x="70" y="990" as="targetPoint" />
            <Array as="points">
              <mxPoint x="900" y="1024" />
              <mxPoint x="900" y="990" />
            </Array>
          </mxGeometry>
        </mxCell>
        <mxCell id="gJKcdJ5zcgaOzrdVH2U9-35" style="edgeStyle=orthogonalEdgeStyle;rounded=0;orthogonalLoop=1;jettySize=auto;html=1;" parent="1" source="gJKcdJ5zcgaOzrdVH2U9-31" target="gJKcdJ5zcgaOzrdVH2U9-34" edge="1">
          <mxGeometry relative="1" as="geometry" />
        </mxCell>
        <mxCell id="gJKcdJ5zcgaOzrdVH2U9-31" value="&lt;b&gt;Concat&lt;/b&gt;" style="rounded=1;whiteSpace=wrap;html=1;" parent="1" vertex="1">
          <mxGeometry x="914.98" y="1016" width="60" height="30" as="geometry" />
        </mxCell>
        <mxCell id="gJKcdJ5zcgaOzrdVH2U9-37" style="edgeStyle=orthogonalEdgeStyle;rounded=0;orthogonalLoop=1;jettySize=auto;html=1;" parent="1" source="gJKcdJ5zcgaOzrdVH2U9-34" target="gJKcdJ5zcgaOzrdVH2U9-36" edge="1">
          <mxGeometry relative="1" as="geometry">
            <Array as="points">
              <mxPoint x="1114.98" y="1031" />
              <mxPoint x="1114.98" y="996" />
            </Array>
          </mxGeometry>
        </mxCell>
        <mxCell id="gJKcdJ5zcgaOzrdVH2U9-34" value="&lt;b&gt;Doppelte Faltung&lt;/b&gt;" style="rounded=1;whiteSpace=wrap;html=1;dashed=1;dashPattern=1 1;" parent="1" vertex="1">
          <mxGeometry x="994.98" y="1011" width="110" height="40" as="geometry" />
        </mxCell>
        <mxCell id="gJKcdJ5zcgaOzrdVH2U9-39" style="edgeStyle=orthogonalEdgeStyle;rounded=0;orthogonalLoop=1;jettySize=auto;html=1;" parent="1" source="gJKcdJ5zcgaOzrdVH2U9-36" target="gJKcdJ5zcgaOzrdVH2U9-38" edge="1">
          <mxGeometry relative="1" as="geometry" />
        </mxCell>
        <mxCell id="gJKcdJ5zcgaOzrdVH2U9-36" value="&lt;b&gt;ConvTranspose2d&lt;/b&gt;" style="rounded=1;whiteSpace=wrap;html=1;strokeColor=#7F00FF;" parent="1" vertex="1">
          <mxGeometry x="1134.98" y="981" width="110" height="30" as="geometry" />
        </mxCell>
        <mxCell id="gJKcdJ5zcgaOzrdVH2U9-43" style="edgeStyle=orthogonalEdgeStyle;rounded=0;orthogonalLoop=1;jettySize=auto;html=1;" parent="1" source="gJKcdJ5zcgaOzrdVH2U9-38" target="gJKcdJ5zcgaOzrdVH2U9-42" edge="1">
          <mxGeometry relative="1" as="geometry" />
        </mxCell>
        <mxCell id="gJKcdJ5zcgaOzrdVH2U9-38" value="&lt;b&gt;Concat&lt;/b&gt;" style="rounded=1;whiteSpace=wrap;html=1;" parent="1" vertex="1">
          <mxGeometry x="1264.98" y="981" width="60" height="30" as="geometry" />
        </mxCell>
        <mxCell id="gJKcdJ5zcgaOzrdVH2U9-41" style="edgeStyle=orthogonalEdgeStyle;rounded=0;orthogonalLoop=1;jettySize=auto;html=1;exitX=1;exitY=0.5;exitDx=0;exitDy=0;endArrow=none;startFill=0;" parent="1" source="f96OBmaPLv8beqYOAQJ8-17" edge="1">
          <mxGeometry relative="1" as="geometry">
            <mxPoint x="989.97" y="820" as="targetPoint" />
          </mxGeometry>
        </mxCell>
        <mxCell id="DLmJVT5W4wlfgbW40eFw-17" style="edgeStyle=orthogonalEdgeStyle;rounded=0;orthogonalLoop=1;jettySize=auto;html=1;" parent="1" source="gJKcdJ5zcgaOzrdVH2U9-42" target="DLmJVT5W4wlfgbW40eFw-16" edge="1">
          <mxGeometry relative="1" as="geometry" />
        </mxCell>
        <mxCell id="gJKcdJ5zcgaOzrdVH2U9-42" value="&lt;b&gt;Doppelte Faltung&lt;/b&gt;" style="rounded=1;whiteSpace=wrap;html=1;dashed=1;dashPattern=1 1;" parent="1" vertex="1">
          <mxGeometry x="1344.98" y="976" width="110" height="40" as="geometry" />
        </mxCell>
        <mxCell id="gJKcdJ5zcgaOzrdVH2U9-44" value="&lt;b&gt;Sigmoid&lt;/b&gt;" style="rounded=1;whiteSpace=wrap;html=1;" parent="1" vertex="1">
          <mxGeometry x="1554.98" y="981" width="60" height="30" as="geometry" />
        </mxCell>
        <mxCell id="gJKcdJ5zcgaOzrdVH2U9-46" style="edgeStyle=orthogonalEdgeStyle;rounded=0;orthogonalLoop=1;jettySize=auto;html=1;exitX=0;exitY=0.25;exitDx=0;exitDy=0;endArrow=none;startFill=0;dashed=1;" parent="1" source="gJKcdJ5zcgaOzrdVH2U9-38" edge="1">
          <mxGeometry relative="1" as="geometry">
            <mxPoint x="70" y="970" as="targetPoint" />
            <Array as="points">
              <mxPoint x="1250" y="989" />
              <mxPoint x="1250" y="970" />
            </Array>
          </mxGeometry>
        </mxCell>
        <mxCell id="gJKcdJ5zcgaOzrdVH2U9-50" value="" style="rounded=0;whiteSpace=wrap;html=1;" parent="1" vertex="1">
          <mxGeometry x="70" y="440" width="610" height="180" as="geometry" />
        </mxCell>
        <mxCell id="gJKcdJ5zcgaOzrdVH2U9-51" value="&lt;font style=&quot;font-size: 23px;&quot;&gt;Ganzes Modell&lt;/font&gt;" style="text;html=1;align=center;verticalAlign=middle;whiteSpace=wrap;rounded=0;" parent="1" vertex="1">
          <mxGeometry x="80" y="570" width="160" height="40" as="geometry" />
        </mxCell>
        <mxCell id="gJKcdJ5zcgaOzrdVH2U9-55" style="edgeStyle=orthogonalEdgeStyle;rounded=0;orthogonalLoop=1;jettySize=auto;html=1;" parent="1" source="gJKcdJ5zcgaOzrdVH2U9-52" target="gJKcdJ5zcgaOzrdVH2U9-54" edge="1">
          <mxGeometry relative="1" as="geometry" />
        </mxCell>
        <mxCell id="gJKcdJ5zcgaOzrdVH2U9-52" value="&lt;b&gt;Encoder&lt;/b&gt;" style="rounded=1;whiteSpace=wrap;html=1;strokeColor=default;dashed=1;dashPattern=1 2;" parent="1" vertex="1">
          <mxGeometry x="180" y="512.5" width="110" height="40" as="geometry" />
        </mxCell>
        <mxCell id="gJKcdJ5zcgaOzrdVH2U9-77" style="edgeStyle=orthogonalEdgeStyle;rounded=0;orthogonalLoop=1;jettySize=auto;html=1;" parent="1" source="gJKcdJ5zcgaOzrdVH2U9-53" target="gJKcdJ5zcgaOzrdVH2U9-76" edge="1">
          <mxGeometry relative="1" as="geometry" />
        </mxCell>
        <mxCell id="gJKcdJ5zcgaOzrdVH2U9-53" value="&lt;b&gt;Decoder&lt;/b&gt;" style="rounded=1;whiteSpace=wrap;html=1;dashed=1;dashPattern=1 2;" parent="1" vertex="1">
          <mxGeometry x="459.97" y="512.5" width="110" height="40" as="geometry" />
        </mxCell>
        <mxCell id="gJKcdJ5zcgaOzrdVH2U9-56" style="edgeStyle=orthogonalEdgeStyle;rounded=0;orthogonalLoop=1;jettySize=auto;html=1;" parent="1" source="gJKcdJ5zcgaOzrdVH2U9-54" target="gJKcdJ5zcgaOzrdVH2U9-53" edge="1">
          <mxGeometry relative="1" as="geometry" />
        </mxCell>
        <mxCell id="gJKcdJ5zcgaOzrdVH2U9-54" value="&lt;b&gt;Doppelte Faltung&lt;/b&gt;&lt;div&gt;&lt;b&gt;(Bottleneck)&lt;/b&gt;&lt;/div&gt;" style="rounded=1;whiteSpace=wrap;html=1;" parent="1" vertex="1">
          <mxGeometry x="320" y="505" width="110" height="55" as="geometry" />
        </mxCell>
        <mxCell id="gJKcdJ5zcgaOzrdVH2U9-60" style="edgeStyle=orthogonalEdgeStyle;rounded=0;orthogonalLoop=1;jettySize=auto;html=1;exitX=0.001;exitY=0.416;exitDx=0;exitDy=0;entryX=0;entryY=0.5;entryDx=0;entryDy=0;exitPerimeter=0;" parent="1" target="gJKcdJ5zcgaOzrdVH2U9-59" edge="1">
          <mxGeometry relative="1" as="geometry">
            <mxPoint x="710.5600000000004" y="532.3799999999999" as="sourcePoint" />
          </mxGeometry>
        </mxCell>
        <mxCell id="gJKcdJ5zcgaOzrdVH2U9-58" value="&lt;font style=&quot;font-size: 23px;&quot;&gt;Doppelte Faltung&lt;/font&gt;" style="text;html=1;align=center;verticalAlign=middle;whiteSpace=wrap;rounded=0;" parent="1" vertex="1">
          <mxGeometry x="730" y="560" width="180" height="50" as="geometry" />
        </mxCell>
        <mxCell id="gJKcdJ5zcgaOzrdVH2U9-62" style="edgeStyle=orthogonalEdgeStyle;rounded=0;orthogonalLoop=1;jettySize=auto;html=1;" parent="1" source="gJKcdJ5zcgaOzrdVH2U9-59" target="gJKcdJ5zcgaOzrdVH2U9-61" edge="1">
          <mxGeometry relative="1" as="geometry" />
        </mxCell>
        <mxCell id="gJKcdJ5zcgaOzrdVH2U9-59" value="&lt;b&gt;Conv2d&lt;/b&gt;" style="rounded=1;whiteSpace=wrap;html=1;strokeColor=#FF00FF;" parent="1" vertex="1">
          <mxGeometry x="730" y="517.5" width="60" height="30" as="geometry" />
        </mxCell>
        <mxCell id="gJKcdJ5zcgaOzrdVH2U9-64" style="edgeStyle=orthogonalEdgeStyle;rounded=0;orthogonalLoop=1;jettySize=auto;html=1;" parent="1" source="gJKcdJ5zcgaOzrdVH2U9-61" target="gJKcdJ5zcgaOzrdVH2U9-63" edge="1">
          <mxGeometry relative="1" as="geometry" />
        </mxCell>
        <mxCell id="gJKcdJ5zcgaOzrdVH2U9-61" value="&lt;b&gt;BatchNorm2d&lt;/b&gt;" style="rounded=1;whiteSpace=wrap;html=1;" parent="1" vertex="1">
          <mxGeometry x="810" y="517.5" width="90" height="30" as="geometry" />
        </mxCell>
        <mxCell id="gJKcdJ5zcgaOzrdVH2U9-68" style="edgeStyle=orthogonalEdgeStyle;rounded=0;orthogonalLoop=1;jettySize=auto;html=1;" parent="1" source="gJKcdJ5zcgaOzrdVH2U9-63" target="gJKcdJ5zcgaOzrdVH2U9-65" edge="1">
          <mxGeometry relative="1" as="geometry" />
        </mxCell>
        <mxCell id="gJKcdJ5zcgaOzrdVH2U9-63" value="&lt;b&gt;ReLU&lt;/b&gt;" style="rounded=1;whiteSpace=wrap;html=1;" parent="1" vertex="1">
          <mxGeometry x="920" y="517.5" width="60" height="30" as="geometry" />
        </mxCell>
        <mxCell id="gJKcdJ5zcgaOzrdVH2U9-69" style="edgeStyle=orthogonalEdgeStyle;rounded=0;orthogonalLoop=1;jettySize=auto;html=1;" parent="1" source="gJKcdJ5zcgaOzrdVH2U9-65" target="gJKcdJ5zcgaOzrdVH2U9-66" edge="1">
          <mxGeometry relative="1" as="geometry" />
        </mxCell>
        <mxCell id="gJKcdJ5zcgaOzrdVH2U9-65" value="&lt;b&gt;Conv2d&lt;/b&gt;" style="rounded=1;whiteSpace=wrap;html=1;strokeColor=#FF00FF;" parent="1" vertex="1">
          <mxGeometry x="1000" y="517.5" width="60" height="30" as="geometry" />
        </mxCell>
        <mxCell id="gJKcdJ5zcgaOzrdVH2U9-70" style="edgeStyle=orthogonalEdgeStyle;rounded=0;orthogonalLoop=1;jettySize=auto;html=1;" parent="1" source="gJKcdJ5zcgaOzrdVH2U9-66" target="gJKcdJ5zcgaOzrdVH2U9-67" edge="1">
          <mxGeometry relative="1" as="geometry" />
        </mxCell>
        <mxCell id="gJKcdJ5zcgaOzrdVH2U9-66" value="&lt;b&gt;BatchNorm2d&lt;/b&gt;" style="rounded=1;whiteSpace=wrap;html=1;" parent="1" vertex="1">
          <mxGeometry x="1080" y="517.5" width="90" height="30" as="geometry" />
        </mxCell>
        <mxCell id="gJKcdJ5zcgaOzrdVH2U9-67" value="&lt;b&gt;ReLU&lt;/b&gt;" style="rounded=1;whiteSpace=wrap;html=1;" parent="1" vertex="1">
          <mxGeometry x="1190" y="517.5" width="60" height="30" as="geometry" />
        </mxCell>
        <mxCell id="gJKcdJ5zcgaOzrdVH2U9-71" style="edgeStyle=orthogonalEdgeStyle;rounded=0;orthogonalLoop=1;jettySize=auto;html=1;exitX=1;exitY=0.5;exitDx=0;exitDy=0;endArrow=none;startFill=0;" parent="1" source="gJKcdJ5zcgaOzrdVH2U9-67" edge="1">
          <mxGeometry relative="1" as="geometry">
            <mxPoint x="1270" y="532.5" as="targetPoint" />
          </mxGeometry>
        </mxCell>
        <mxCell id="gJKcdJ5zcgaOzrdVH2U9-72" style="edgeStyle=orthogonalEdgeStyle;rounded=0;orthogonalLoop=1;jettySize=auto;html=1;exitX=0;exitY=0.5;exitDx=0;exitDy=0;endArrow=none;startFill=0;" parent="1" source="f96OBmaPLv8beqYOAQJ8-2" edge="1">
          <mxGeometry relative="1" as="geometry">
            <mxPoint x="70" y="705" as="targetPoint" />
          </mxGeometry>
        </mxCell>
        <mxCell id="gJKcdJ5zcgaOzrdVH2U9-73" style="edgeStyle=orthogonalEdgeStyle;rounded=0;orthogonalLoop=1;jettySize=auto;html=1;entryX=1;entryY=0.184;entryDx=0;entryDy=0;entryPerimeter=0;exitX=1;exitY=0.5;exitDx=0;exitDy=0;endArrow=none;startFill=0;" parent="1" source="gJKcdJ5zcgaOzrdVH2U9-44" target="gJKcdJ5zcgaOzrdVH2U9-10" edge="1">
          <mxGeometry relative="1" as="geometry">
            <mxPoint x="1624.98" y="995.75" as="targetPoint" />
          </mxGeometry>
        </mxCell>
        <mxCell id="gJKcdJ5zcgaOzrdVH2U9-75" style="edgeStyle=orthogonalEdgeStyle;rounded=0;orthogonalLoop=1;jettySize=auto;html=1;" parent="1" source="gJKcdJ5zcgaOzrdVH2U9-74" target="gJKcdJ5zcgaOzrdVH2U9-52" edge="1">
          <mxGeometry relative="1" as="geometry" />
        </mxCell>
        <mxCell id="gJKcdJ5zcgaOzrdVH2U9-74" value="&lt;b&gt;Input&lt;/b&gt;" style="rounded=1;whiteSpace=wrap;html=1;" parent="1" vertex="1">
          <mxGeometry x="89.97" y="517.5" width="60" height="30" as="geometry" />
        </mxCell>
        <mxCell id="gJKcdJ5zcgaOzrdVH2U9-76" value="&lt;b&gt;Output&lt;/b&gt;" style="rounded=1;whiteSpace=wrap;html=1;" parent="1" vertex="1">
          <mxGeometry x="600" y="517.5" width="60" height="30" as="geometry" />
        </mxCell>
        <mxCell id="DLmJVT5W4wlfgbW40eFw-1" value="&lt;font style=&quot;font-size: 16px;&quot;&gt;256 x 256 x 3&lt;/font&gt;" style="text;html=1;align=center;verticalAlign=middle;whiteSpace=wrap;rounded=0;" parent="1" vertex="1">
          <mxGeometry x="79.97" y="480" width="100.03" height="20" as="geometry" />
        </mxCell>
        <mxCell id="DLmJVT5W4wlfgbW40eFw-2" value="&lt;font style=&quot;font-size: 16px;&quot;&gt;256 x 256 x 3&lt;/font&gt;" style="text;html=1;align=center;verticalAlign=middle;whiteSpace=wrap;rounded=0;" parent="1" vertex="1">
          <mxGeometry x="569.94" y="480" width="100.03" height="20" as="geometry" />
        </mxCell>
        <mxCell id="DLmJVT5W4wlfgbW40eFw-3" value="&lt;div&gt;&lt;font style=&quot;font-size: 16px;&quot;&gt;16 x 16 x 512&lt;/font&gt;&lt;/div&gt;&lt;div&gt;&lt;font style=&quot;font-size: 16px;&quot;&gt;↓&lt;/font&gt;&lt;/div&gt;&lt;font style=&quot;font-size: 16px;&quot;&gt;16 x 16 x 1024&lt;/font&gt;" style="text;html=1;align=center;verticalAlign=middle;whiteSpace=wrap;rounded=0;" parent="1" vertex="1">
          <mxGeometry x="321.25" y="464" width="107.5" height="20" as="geometry" />
        </mxCell>
        <mxCell id="DLmJVT5W4wlfgbW40eFw-6" value="&lt;font style=&quot;font-size: 16px;&quot;&gt;256 x 256 x 3&lt;/font&gt;&lt;div&gt;&lt;font style=&quot;font-size: 16px;&quot;&gt;↓&lt;/font&gt;&lt;/div&gt;&lt;div&gt;&lt;font style=&quot;font-size: 16px;&quot;&gt;128 x 128 x 64&lt;/font&gt;&lt;/div&gt;" style="text;html=1;align=center;verticalAlign=middle;whiteSpace=wrap;rounded=0;" parent="1" vertex="1">
          <mxGeometry x="130" y="755" width="120.03" height="20" as="geometry" />
        </mxCell>
        <mxCell id="DLmJVT5W4wlfgbW40eFw-7" value="&lt;div&gt;&lt;span style=&quot;background-color: transparent; color: light-dark(rgb(0, 0, 0), rgb(255, 255, 255));&quot;&gt;&lt;font style=&quot;font-size: 16px;&quot;&gt;128 x 128 x 64&lt;/font&gt;&lt;/span&gt;&lt;/div&gt;&lt;div&gt;&lt;span style=&quot;background-color: transparent; color: light-dark(rgb(0, 0, 0), rgb(255, 255, 255));&quot;&gt;&lt;font style=&quot;font-size: 16px;&quot;&gt;↓&lt;/font&gt;&lt;/span&gt;&lt;/div&gt;&lt;div&gt;&lt;span style=&quot;background-color: transparent; color: light-dark(rgb(0, 0, 0), rgb(255, 255, 255));&quot;&gt;&lt;font style=&quot;font-size: 16px;&quot;&gt;64 x 64 x 128&lt;/font&gt;&lt;/span&gt;&lt;/div&gt;" style="text;html=1;align=center;verticalAlign=middle;whiteSpace=wrap;rounded=0;" parent="1" vertex="1">
          <mxGeometry x="360" y="795" width="120.03" height="20" as="geometry" />
        </mxCell>
        <mxCell id="DLmJVT5W4wlfgbW40eFw-8" value="&lt;div&gt;&lt;span style=&quot;background-color: transparent; color: light-dark(rgb(0, 0, 0), rgb(255, 255, 255));&quot;&gt;&lt;font style=&quot;font-size: 16px;&quot;&gt;64 x 64 x 128&lt;/font&gt;&lt;/span&gt;&lt;/div&gt;&lt;div&gt;&lt;font style=&quot;font-size: 16px;&quot;&gt;↓&lt;/font&gt;&lt;/div&gt;&lt;div&gt;&lt;span style=&quot;background-color: transparent; color: light-dark(rgb(0, 0, 0), rgb(255, 255, 255));&quot;&gt;&lt;font style=&quot;font-size: 16px;&quot;&gt;32 x 32 x 256&lt;/font&gt;&lt;/span&gt;&lt;/div&gt;" style="text;html=1;align=center;verticalAlign=middle;whiteSpace=wrap;rounded=0;" parent="1" vertex="1">
          <mxGeometry x="609.97" y="840" width="120.03" height="20" as="geometry" />
        </mxCell>
        <mxCell id="DLmJVT5W4wlfgbW40eFw-9" value="&lt;div&gt;&lt;span style=&quot;background-color: transparent; color: light-dark(rgb(0, 0, 0), rgb(255, 255, 255));&quot;&gt;&lt;font style=&quot;font-size: 16px;&quot;&gt;32 x 32 x 256&lt;/font&gt;&lt;/span&gt;&lt;/div&gt;&lt;div&gt;&lt;font style=&quot;font-size: 16px;&quot;&gt;↓&lt;/font&gt;&lt;/div&gt;&lt;div&gt;&lt;span style=&quot;background-color: transparent; color: light-dark(rgb(0, 0, 0), rgb(255, 255, 255));&quot;&gt;&lt;font style=&quot;font-size: 16px;&quot;&gt;16 x 16 x 512&lt;/font&gt;&lt;/span&gt;&lt;/div&gt;" style="text;html=1;align=center;verticalAlign=middle;whiteSpace=wrap;rounded=0;" parent="1" vertex="1">
          <mxGeometry x="840" y="870" width="120.03" height="20" as="geometry" />
        </mxCell>
        <mxCell id="DLmJVT5W4wlfgbW40eFw-10" value="&lt;div&gt;&lt;span style=&quot;background-color: transparent; color: light-dark(rgb(0, 0, 0), rgb(255, 255, 255));&quot;&gt;&lt;font style=&quot;font-size: 16px;&quot;&gt;16 x 16 x 1024&lt;/font&gt;&lt;/span&gt;&lt;/div&gt;&lt;div&gt;&lt;font style=&quot;font-size: 16px;&quot;&gt;↓&lt;span style=&quot;background-color: transparent; color: light-dark(rgb(0, 0, 0), rgb(255, 255, 255));&quot;&gt;&lt;/span&gt;&lt;/font&gt;&lt;/div&gt;&lt;div&gt;&lt;font style=&quot;font-size: 16px;&quot;&gt;32 x 32 x 512&lt;/font&gt;&lt;/div&gt;" style="text;html=1;align=center;verticalAlign=middle;whiteSpace=wrap;rounded=0;" parent="1" vertex="1">
          <mxGeometry x="184.95000000000002" y="1142" width="120.03" height="20" as="geometry" />
        </mxCell>
        <mxCell id="DLmJVT5W4wlfgbW40eFw-11" value="&lt;div&gt;&lt;font style=&quot;font-size: 16px;&quot;&gt;32 x 32 x 512&lt;/font&gt;&lt;/div&gt;&lt;div&gt;&lt;font style=&quot;font-size: 16px;&quot;&gt;&lt;font style=&quot;&quot;&gt;↓&lt;/font&gt;&lt;span style=&quot;background-color: transparent; color: light-dark(rgb(0, 0, 0), rgb(255, 255, 255));&quot;&gt;&lt;/span&gt;&lt;/font&gt;&lt;/div&gt;&lt;div&gt;&lt;font style=&quot;font-size: 16px;&quot;&gt;64 x 64 x 256&lt;/font&gt;&lt;/div&gt;" style="text;html=1;align=center;verticalAlign=middle;whiteSpace=wrap;rounded=0;" parent="1" vertex="1">
          <mxGeometry x="534.98" y="1110" width="120.03" height="20" as="geometry" />
        </mxCell>
        <mxCell id="DLmJVT5W4wlfgbW40eFw-12" value="&lt;div&gt;&lt;font style=&quot;font-size: 16px;&quot;&gt;64 x 64 x 256&lt;/font&gt;&lt;/div&gt;&lt;div&gt;&lt;font style=&quot;font-size: 16px;&quot;&gt;&lt;font style=&quot;&quot;&gt;↓&lt;/font&gt;&lt;span style=&quot;background-color: transparent; color: light-dark(rgb(0, 0, 0), rgb(255, 255, 255));&quot;&gt;&lt;/span&gt;&lt;/font&gt;&lt;/div&gt;&lt;div&gt;&lt;font style=&quot;font-size: 16px;&quot;&gt;128 x 128 x 128&lt;/font&gt;&lt;/div&gt;" style="text;html=1;align=center;verticalAlign=middle;whiteSpace=wrap;rounded=0;" parent="1" vertex="1">
          <mxGeometry x="884.98" y="1086" width="120.03" height="20" as="geometry" />
        </mxCell>
        <mxCell id="DLmJVT5W4wlfgbW40eFw-13" value="&lt;div&gt;&lt;font style=&quot;font-size: 16px;&quot;&gt;128 x 128 x 128&lt;/font&gt;&lt;/div&gt;&lt;div&gt;&lt;font style=&quot;font-size: 16px;&quot;&gt;&lt;font style=&quot;&quot;&gt;↓&lt;/font&gt;&lt;span style=&quot;background-color: transparent; color: light-dark(rgb(0, 0, 0), rgb(255, 255, 255));&quot;&gt;&lt;/span&gt;&lt;/font&gt;&lt;/div&gt;&lt;div&gt;&lt;font style=&quot;font-size: 16px;&quot;&gt;256 x 256 x 64&lt;/font&gt;&lt;/div&gt;" style="text;html=1;align=center;verticalAlign=middle;whiteSpace=wrap;rounded=0;" parent="1" vertex="1">
          <mxGeometry x="1234.98" y="1051" width="120.03" height="20" as="geometry" />
        </mxCell>
        <mxCell id="DLmJVT5W4wlfgbW40eFw-14" value="&lt;font style=&quot;font-size: 19px;&quot;&gt;↓ &lt;font style=&quot;color: rgb(255, 128, 0);&quot;&gt;MaxPool&lt;/font&gt;:&amp;nbsp;&lt;span style=&quot;white-space: pre;&quot;&gt;&#x9;&lt;/span&gt;&lt;span style=&quot;white-space: pre;&quot;&gt;&#x9;&lt;/span&gt;2x2&lt;/font&gt;&lt;div&gt;&lt;span style=&quot;font-size: 19px;&quot;&gt;&lt;br&gt;&lt;/span&gt;&lt;div&gt;&lt;div style=&quot;&quot;&gt;&lt;font style=&quot;font-size: 19px;&quot;&gt;&lt;font style=&quot;&quot;&gt;&lt;span style=&quot;background-color: transparent; color: light-dark(rgb(0, 0, 0), rgb(255, 255, 255));&quot;&gt;↓&lt;/span&gt;&lt;/font&gt;&lt;span style=&quot;background-color: transparent; color: light-dark(rgb(0, 0, 0), rgb(255, 255, 255));&quot;&gt;↑&lt;/span&gt;&lt;span style=&quot;background-color: transparent; color: light-dark(rgb(0, 0, 0), rgb(255, 255, 255));&quot;&gt;&amp;nbsp;&lt;/span&gt;&lt;span style=&quot;background-color: transparent;&quot;&gt;&lt;font style=&quot;color: rgb(255, 0, 255);&quot;&gt;Conv2d&lt;/font&gt;&lt;/span&gt;&lt;span style=&quot;background-color: transparent;&quot;&gt;&lt;font style=&quot;color: rgb(255, 0, 255);&quot;&gt;:&lt;/font&gt;&lt;span style=&quot;color: light-dark(rgb(0, 0, 0), rgb(255, 255, 255)); white-space: pre;&quot;&gt;&#x9;&lt;/span&gt;&lt;span style=&quot;color: light-dark(rgb(0, 0, 0), rgb(255, 255, 255)); white-space: pre;&quot;&gt;&#x9;&lt;/span&gt;&lt;/span&gt;&lt;span style=&quot;background-color: transparent; color: light-dark(rgb(0, 0, 0), rgb(255, 255, 255));&quot;&gt;3x3&lt;/span&gt;&lt;/font&gt;&lt;/div&gt;&lt;div style=&quot;&quot;&gt;&lt;font style=&quot;font-size: 19px;&quot;&gt;&lt;span style=&quot;white-space: pre;&quot;&gt;&#x9;&lt;/span&gt;padding:&lt;span style=&quot;white-space: pre;&quot;&gt;&#x9;&lt;/span&gt;1&lt;/font&gt;&lt;/div&gt;&lt;div style=&quot;&quot;&gt;&lt;font style=&quot;font-size: 19px;&quot;&gt;&lt;span style=&quot;white-space: pre;&quot;&gt;&#x9;&lt;/span&gt;stride: &lt;span style=&quot;white-space: pre;&quot;&gt;&#x9;&lt;/span&gt;1&lt;/font&gt;&lt;/div&gt;&lt;div style=&quot;&quot;&gt;&lt;font style=&quot;font-size: 19px;&quot;&gt;&lt;br&gt;&lt;/font&gt;&lt;/div&gt;&lt;div style=&quot;&quot;&gt;&lt;font style=&quot;font-size: 19px;&quot;&gt;&lt;span style=&quot;background-color: transparent; color: light-dark(rgb(0, 0, 0), rgb(255, 255, 255));&quot;&gt;↑&amp;nbsp;&lt;/span&gt;&lt;font style=&quot;color: rgb(127, 0, 255);&quot;&gt;ConvTranspose&lt;/font&gt;:&lt;span style=&quot;white-space: pre;&quot;&gt;&#x9;&lt;/span&gt;2x2&lt;/font&gt;&lt;/div&gt;&lt;/div&gt;&lt;div style=&quot;&quot;&gt;&lt;font style=&quot;font-size: 19px;&quot;&gt;&lt;span style=&quot;white-space: pre;&quot;&gt;&#x9;&lt;/span&gt;padding:&lt;span style=&quot;white-space: pre;&quot;&gt;&#x9;&lt;/span&gt;0&lt;br&gt;&lt;/font&gt;&lt;/div&gt;&lt;div style=&quot;&quot;&gt;&lt;font style=&quot;&quot;&gt;&lt;font style=&quot;font-size: 19px;&quot;&gt;&lt;span style=&quot;white-space: pre;&quot;&gt;&#x9;&lt;/span&gt;stride: &lt;span style=&quot;white-space: pre;&quot;&gt;&#x9;&lt;/span&gt;2&lt;/font&gt;&lt;br&gt;&lt;/font&gt;&lt;/div&gt;&lt;div style=&quot;&quot;&gt;&lt;font style=&quot;&quot;&gt;&lt;font style=&quot;font-size: 19px;&quot;&gt;↑ &lt;font style=&quot;color: rgb(0, 255, 0);&quot;&gt;Conv2d&lt;/font&gt;:&lt;span style=&quot;white-space: pre;&quot;&gt;&#x9;&lt;/span&gt;&lt;span style=&quot;white-space: pre;&quot;&gt;&#x9;&lt;/span&gt;1x1&lt;/font&gt;&lt;/font&gt;&lt;/div&gt;&lt;div style=&quot;&quot;&gt;&lt;font style=&quot;&quot;&gt;&lt;font style=&quot;font-size: 19px;&quot;&gt;&lt;span style=&quot;white-space: pre;&quot;&gt;&#x9;&lt;/span&gt;padding:&lt;span style=&quot;white-space: pre;&quot;&gt;&#x9;&lt;/span&gt;0&lt;br&gt;&lt;/font&gt;&lt;/font&gt;&lt;/div&gt;&lt;div style=&quot;&quot;&gt;&lt;font style=&quot;&quot;&gt;&lt;font style=&quot;font-size: 19px;&quot;&gt;&lt;span style=&quot;white-space: pre;&quot;&gt;&#x9;&lt;/span&gt;stride: &lt;span style=&quot;white-space: pre;&quot;&gt;&#x9;&lt;/span&gt;1&lt;br&gt;&lt;/font&gt;&lt;/font&gt;&lt;/div&gt;&lt;/div&gt;" style="text;html=1;align=left;verticalAlign=middle;whiteSpace=wrap;rounded=0;strokeColor=none;dashed=1;dashPattern=1 1;" parent="1" vertex="1">
          <mxGeometry x="1055" y="650" width="225" height="280" as="geometry" />
        </mxCell>
        <mxCell id="DLmJVT5W4wlfgbW40eFw-15" value="&lt;div&gt;&lt;font style=&quot;font-size: 16px;&quot;&gt;256 x 256 x 64&lt;/font&gt;&lt;/div&gt;&lt;div&gt;&lt;font style=&quot;font-size: 16px;&quot;&gt;&lt;font style=&quot;&quot;&gt;↓&lt;/font&gt;&lt;span style=&quot;background-color: transparent; color: light-dark(rgb(0, 0, 0), rgb(255, 255, 255));&quot;&gt;&lt;/span&gt;&lt;/font&gt;&lt;/div&gt;&lt;div&gt;&lt;font style=&quot;font-size: 16px;&quot;&gt;256 x 256 x 3&lt;/font&gt;&lt;/div&gt;" style="text;html=1;align=center;verticalAlign=middle;whiteSpace=wrap;rounded=0;" parent="1" vertex="1">
          <mxGeometry x="1444.96" y="1046" width="120.03" height="20" as="geometry" />
        </mxCell>
        <mxCell id="DLmJVT5W4wlfgbW40eFw-18" style="edgeStyle=orthogonalEdgeStyle;rounded=0;orthogonalLoop=1;jettySize=auto;html=1;" parent="1" source="DLmJVT5W4wlfgbW40eFw-16" target="gJKcdJ5zcgaOzrdVH2U9-44" edge="1">
          <mxGeometry relative="1" as="geometry" />
        </mxCell>
        <mxCell id="DLmJVT5W4wlfgbW40eFw-16" value="&lt;b&gt;Conv2d&lt;/b&gt;" style="rounded=1;whiteSpace=wrap;html=1;strokeColor=#80FF00;" parent="1" vertex="1">
          <mxGeometry x="1474.98" y="981" width="60" height="30" as="geometry" />
        </mxCell>
      </root>
    </mxGraphModel>
  </diagram>
</mxfile>
